<?xml version="1.0" encoding="UTF-8"?>
<svg width="20px" height="20px" viewBox="0 0 20 20" version="1.1" xmlns="http://www.w3.org/2000/svg" xmlns:xlink="http://www.w3.org/1999/xlink">
    <!-- Generator: Sketch 51.3 (57544) - http://www.bohemiancoding.com/sketch -->
    <title>facebook</title>
    <desc>Created with Sketch.</desc>
    <defs></defs>
    <g id="Page-1" stroke="none" stroke-width="1" fill="none" fill-rule="evenodd">
        <g id="Desktop-HD-Copy-14" transform="translate(-1204.000000, -4812.000000)" fill="#52565A" fill-rule="nonzero">
            <g id="Group-10" transform="translate(0.000000, 3329.000000)">
                <g id="Group-4" transform="translate(145.000000, 1450.000000)">
                    <path d="M1077.89583,33 L1060.10417,33 C1059.49479,33 1059,33.4947917 1059,34.1041667 L1059,51.8958333 C1059,52.5052083 1059.49479,53 1060.10417,53 L1069,53 L1069,45.0833333 L1066.60938,45.0833333 L1066.60938,42.1666667 L1069,42.1666667 L1069,40.0104167 C1069,37.4270833 1070.79167,36.0208333 1073.09896,36.0208333 C1074.20312,36.0208333 1075.39062,36.1041667 1075.66667,36.140625 L1075.66667,38.8385417 L1073.82812,38.8385417 C1072.57292,38.8385417 1072.33333,39.4322917 1072.33333,40.3072917 L1072.33333,42.1666667 L1075.32292,42.1666667 L1074.93229,45.0833333 L1072.33333,45.0833333 L1072.33333,53 L1077.89583,53 C1078.50521,53 1079,52.5052083 1079,51.8958333 L1079,34.1041667 C1079,33.4947917 1078.50521,33 1077.89583,33 Z" id="facebook"></path>
                </g>
            </g>
        </g>
    </g>
</svg>