<?xml version="1.0" encoding="UTF-8"?>
<svg width="25px" height="16px" viewBox="0 0 25 16" version="1.1" xmlns="http://www.w3.org/2000/svg" xmlns:xlink="http://www.w3.org/1999/xlink">
    <!-- Generator: Sketch 51.3 (57544) - http://www.bohemiancoding.com/sketch -->
    <title>right-arrow</title>
    <desc>Created with Sketch.</desc>
    <defs></defs>
    <g id="Page-1" stroke="none" stroke-width="1" fill="none" fill-rule="evenodd">
        <g id="Desktop-HD-Copy-14" transform="translate(-1258.000000, -4217.000000)" fill="#000000" fill-rule="nonzero">
            <g id="Group-10" transform="translate(0.000000, 3329.000000)">
                <g id="Group-6" transform="translate(145.000000, 884.000000)">
                    <g id="Group-7" transform="translate(1048.000000, 4.000000)">
                        <path d="M80.5482558,0.30635011 C80.1163598,0.722986259 80.1163598,1.41460227 80.5397873,1.83957114 L85.688665,6.91419944 L66.0924428,6.91419944 C65.4911758,6.91419944 65,7.39749737 65,7.99745343 C65,8.59740948 65.4911758,9.08070742 66.0924428,9.08070742 L85.6801965,9.08070742 L80.5313187,14.1553357 C80.1078913,14.5803046 80.1163598,15.2635879 80.5397873,15.6885567 C80.9716833,16.1051929 81.6576358,16.1051929 82.0895317,15.680224 L89.0676161,8.76406394 C89.1607701,8.66407127 89.236987,8.55574587 89.2962669,8.4224223 C89.3555467,8.28909873 89.3809524,8.14744244 89.3809524,8.00578615 C89.3809524,7.72247357 89.2708612,7.45582643 89.0676161,7.24750836 L82.0895317,0.331348279 C81.6745729,-0.101953317 80.9801518,-0.11028604 80.5482558,0.30635011 Z" id="right-arrow"></path>
                    </g>
                </g>
            </g>
        </g>
    </g>
</svg>