<?xml version="1.0" encoding="UTF-8"?>
<svg width="25px" height="16px" viewBox="0 0 25 16" version="1.1" xmlns="http://www.w3.org/2000/svg" xmlns:xlink="http://www.w3.org/1999/xlink">
    <!-- Generator: Sketch 51.3 (57544) - http://www.bohemiancoding.com/sketch -->
    <title>left-arrow</title>
    <desc>Created with Sketch.</desc>
    <defs></defs>
    <g id="Page-1" stroke="none" stroke-width="1" fill="none" fill-rule="evenodd">
        <g id="Desktop-HD-Copy-14" transform="translate(-1193.000000, -4217.000000)" fill="#000000" fill-rule="nonzero">
            <g id="Group-10" transform="translate(0.000000, 3329.000000)">
                <g id="Group-6" transform="translate(145.000000, 884.000000)">
                    <g id="Group-7" transform="translate(1048.000000, 4.000000)">
                        <path d="M15.5482558,0.30635011 C15.1163598,0.722986259 15.1163598,1.41460227 15.5397873,1.83957114 L20.688665,6.91419944 L1.09244281,6.91419944 C0.491175838,6.91419944 0,7.39749737 0,7.99745343 C0,8.59740948 0.491175838,9.08070742 1.09244281,9.08070742 L20.6801965,9.08070742 L15.5313187,14.1553357 C15.1078913,14.5803046 15.1163598,15.2635879 15.5397873,15.6885567 C15.9716833,16.1051929 16.6576358,16.1051929 17.0895317,15.680224 L24.0676161,8.76406394 C24.1607701,8.66407127 24.236987,8.55574587 24.2962669,8.4224223 C24.3555467,8.28909873 24.3809524,8.14744244 24.3809524,8.00578615 C24.3809524,7.72247357 24.2708612,7.45582643 24.0676161,7.24750836 L17.0895317,0.331348279 C16.6745729,-0.101953317 15.9801518,-0.11028604 15.5482558,0.30635011 Z" id="left-arrow" transform="translate(12.190476, 8.000000) scale(-1, 1) translate(-12.190476, -8.000000) "></path>
                    </g>
                </g>
            </g>
        </g>
    </g>
</svg>