<?xml version="1.0" encoding="UTF-8"?>
<svg width="20px" height="20px" viewBox="0 0 20 20" version="1.1" xmlns="http://www.w3.org/2000/svg" xmlns:xlink="http://www.w3.org/1999/xlink">
    <!-- Generator: Sketch 51.3 (57544) - http://www.bohemiancoding.com/sketch -->
    <title>linkedin</title>
    <desc>Created with Sketch.</desc>
    <defs></defs>
    <g id="Page-1" stroke="none" stroke-width="1" fill="none" fill-rule="evenodd">
        <g id="Desktop-HD-Copy-14" transform="translate(-1276.000000, -4812.000000)" fill="#52565A" fill-rule="nonzero">
            <g id="Group-10" transform="translate(0.000000, 3329.000000)">
                <g id="Group-4" transform="translate(145.000000, 1450.000000)">
                    <path d="M1149.4006,33 L1132.70878,33 C1131.79708,33 1131,33.6564209 1131,34.5576973 L1131,51.286012 C1131,52.192498 1131.79708,53 1132.70878,53 L1149.39539,53 C1150.31229,53 1150.99997,52.1872884 1150.99997,51.286012 L1150.99997,34.5576973 C1151.00518,33.6564209 1150.31229,33 1149.4006,33 Z M1137.19952,49.6710081 L1134.3342,49.6710081 L1134.3342,40.7624381 L1137.19952,40.7624381 L1137.19952,49.6710081 Z M1135.86584,39.4079187 L1135.845,39.4079187 C1134.9281,39.4079187 1134.3342,38.7254493 1134.3342,37.8710602 C1134.3342,37.0010419 1134.94373,36.3342016 1135.88147,36.3342016 C1136.81922,36.3342016 1137.39228,36.9958322 1137.41312,37.8710602 C1137.41312,38.7254493 1136.81922,39.4079187 1135.86584,39.4079187 Z M1147.67098,49.6710081 L1144.80566,49.6710081 L1144.80566,44.7999479 C1144.80566,43.6329773 1144.38888,42.8358948 1143.35216,42.8358948 C1142.56029,42.8358948 1142.09141,43.3724928 1141.88303,43.8934618 C1141.80488,44.0810107 1141.78404,44.3362855 1141.78404,44.59677 L1141.78404,49.6710081 L1138.91872,49.6710081 L1138.91872,40.7624381 L1141.78404,40.7624381 L1141.78404,42.0023444 C1142.20082,41.4084397 1142.85203,40.5540505 1144.36805,40.5540505 C1146.24874,40.5540505 1147.67098,41.7939568 1147.67098,44.4665277 L1147.67098,49.6710081 Z" id="linkedin"></path>
                </g>
            </g>
        </g>
    </g>
</svg>